<?xml version="1.0"?>
<svg xmlns="http://www.w3.org/2000/svg" width="512" height="512" viewBox="0 0 128 128"><g><path d="M122.959,96.034a1.749,1.749,0,0,0-1.459-.784H109.8A19.17,19.17,0,0,0,91.1,77.859a19.152,19.152,0,0,0-35.583.066,19.263,19.263,0,0,0-12.385,6.14V28.01h2.06A9.737,9.737,0,0,0,51.8,25.437l1.279-1.179A6.223,6.223,0,0,1,57.3,22.609h.063l57.356.49h.074a6.717,6.717,0,0,0,6.7-6.721,6.729,6.729,0,0,0-6.774-6.71l-57.363.48A6.1,6.1,0,0,1,53.071,8.5L51.789,7.325A9.7,9.7,0,0,0,45.18,4.75H23.38a1.75,1.75,0,0,0,0,3.5h21.8A6.216,6.216,0,0,1,49.419,9.9l1.287,1.177A9.6,9.6,0,0,0,57.4,13.65l57.4-.48a3.215,3.215,0,0,1,2.242,5.5,3.259,3.259,0,0,1-2.287.926L57.4,19.11A9.722,9.722,0,0,0,50.7,21.683l-1.278,1.178A6.244,6.244,0,0,1,45.19,24.51H43.13V21.42h2.12a1.75,1.75,0,0,0,0-3.5H43.13V14.836h2.12a1.75,1.75,0,0,0,0-3.5H23.375a1.751,1.751,0,0,0-1.75,1.75c0,.017,0,.032,0,.049V95.25H6.5a1.75,1.75,0,0,0-1.611,2.432l4.733,11.179a13.715,13.715,0,0,0,10.258,8.17V121.5a1.751,1.751,0,0,0,1.75,1.75h84.75a1.751,1.751,0,0,0,1.75-1.75v-4.471a13.715,13.715,0,0,0,10.248-8.168l4.733-11.179A1.748,1.748,0,0,0,122.959,96.034Zm-16.673-.784H103.76a13.145,13.145,0,0,0-26.06,0H75.174A15.545,15.545,0,0,1,76.3,90.918l.013-.028a15.656,15.656,0,0,1,29.974,4.36Zm-8.621,0a7.15,7.15,0,0,0-13.87,0H81.237a9.651,9.651,0,0,1,18.986,0Zm-3.741,0H87.536a3.626,3.626,0,0,1,6.388,0ZM79.539,81.48a7.319,7.319,0,0,0-.752-1.11,7.132,7.132,0,0,0-4.95-2.5,1.764,1.764,0,0,0-.229-.017,2.55,2.55,0,0,0-.288-.014c-.156,0-.311,0-.39.01-.042,0-.083,0-.125,0a7.117,7.117,0,0,0-5.3,2.994,18.606,18.606,0,0,0-2.194-1.206,9.6,9.6,0,0,1,16.323.5A19.115,19.115,0,0,0,79.539,81.48Zm-6.234-.135-.036,0h0Zm-.076-.011h0l-.075-.014ZM73,81.35h.051a1.465,1.465,0,0,0,.175-.009,1.358,1.358,0,0,0,.286.018h.044a3.614,3.614,0,0,1,2.554,1.265,3.709,3.709,0,0,1,.689,1.262,19.271,19.271,0,0,0-2.826,3.846,19.138,19.138,0,0,0-3.691-4.725A3.633,3.633,0,0,1,73,81.35Zm.321-12.02A15.6,15.6,0,0,1,87.4,78.149a18.956,18.956,0,0,0-2.506.606,13.137,13.137,0,0,0-22.958-.328,18.784,18.784,0,0,0-2.616-.46A15.618,15.618,0,0,1,73.32,69.33ZM56.872,81.347c.122-.009.238-.006.358-.007A15.678,15.678,0,0,1,67.041,84.8l.007,0h0a15.582,15.582,0,0,1,4.164,5.139c.186.364.355.737.513,1.126.182.438.323.848.446,1.251a18.978,18.978,0,0,0-.512,2.926h-1.4a13.145,13.145,0,0,0-26.06,0H43.13V90.218A15.746,15.746,0,0,1,56.872,81.347Zm7.293,13.9a7.15,7.15,0,0,0-13.87,0H47.737a9.651,9.651,0,0,1,18.986,0Zm-3.741,0H54.036a3.626,3.626,0,0,1,6.388,0Zm-23.294,0V14.84h2.5V95.25Zm-6,0V14.84h2.5V95.25Zm-6-80.41h2.5V95.25h-2.5ZM23.38,119.75v-2.5h81.25v2.5ZM115.155,107.5a10.232,10.232,0,0,1-9.439,6.253H22.284a10.232,10.232,0,0,1-9.439-6.253l-3.7-8.747H118.858Z"/><path d="M93.417,107.75H86a1.75,1.75,0,0,0,0,3.5h7.417a1.75,1.75,0,0,0,0-3.5Z"/></g></svg>
